<svg width="200" height="200" viewBox="0 0 108 108" xmlns="http://www.w3.org/2000/svg">
  <!-- CONFIDANT AI LAUNCHER FOREGROUND - "C AI" -->
  <!-- Based on app/src/main/res/drawable/ic_launcher_foreground.xml -->
  
  <g transform="translate(54, 54)">
    <!-- Outer Ring (Deep Indigo) - Subtle -->
    <circle cx="0" cy="0" r="28" fill="none" stroke="#5C6BC0" stroke-width="1.5" stroke-opacity="0.4"/>
    
    <!-- "C" Letter - Bold and Centered -->
    <path d="M0,-18 C-9.9,-18 -18,-9.9 -18,0 C-18,9.9 -9.9,18 0,18 C4.5,18 8.6,16.2 11.7,13.2 L7.2,8.7 C5.4,10.5 2.8,11.7 0,11.7 C-6.6,11.7 -11.7,6.6 -11.7,0 C-11.7,-6.6 -6.6,-11.7 0,-11.7 C2.8,-11.7 5.4,-10.5 7.2,-8.7 L11.7,-13.2 C8.6,-16.2 4.5,-18 0,-18 Z" fill="#FFFFFF" fill-opacity="0.98"/>
    
    <!-- "AI" Text - Compact (Electric Lime) -->
    <!-- Letter A -->
    <path d="M-3,22 L-1,22 L2,30 L0,30 L-0.5,28 L-3.5,28 L-4,30 L-6,30 Z M-3,26 L-1,26 L-2,23.5 Z" fill="#8BC34A" fill-opacity="0.98"/>
    
    <!-- Letter I -->
    <path d="M3,22 L5,22 L5,30 L3,30 Z" fill="#8BC34A" fill-opacity="0.98"/>
    
    <!-- Center Dot (Electric Lime) - Active Intelligence -->
    <circle cx="0" cy="0" r="3" fill="#8BC34A"/>
    
    <!-- Inner Glow (Electric Lime) -->
    <circle cx="0" cy="0" r="6" fill="#8BC34A" fill-opacity="0.2"/>
  </g>
</svg>
